<?xml version="1.0" standalone="no"?>
<!DOCTYPE svg PUBLIC "-//W3C//DTD SVG 20010904//EN"
 "http://www.w3.org/TR/2001/REC-SVG-20010904/DTD/svg10.dtd">
<svg version="1.0" xmlns="http://www.w3.org/2000/svg"
 width="796.000000pt" height="449.000000pt" viewBox="0 0 796.000000 449.000000"
 preserveAspectRatio="xMidYMid meet">

<g transform="translate(0.000000,449.000000) scale(0.100000,-0.100000)"
fill="#000000" stroke="none">
<path d="M5120 3881 c-5 -11 -10 -46 -10 -79 0 -65 -18 -127 -51 -173 -22 -31
-20 -59 4 -59 8 0 41 18 75 39 76 50 122 121 122 192 0 67 -28 99 -85 99 -34
0 -47 -5 -55 -19z"/>
<path d="M5488 3828 c-4 -75 -32 -138 -90 -203 -42 -47 -46 -74 -6 -37 13 12
47 40 76 62 29 23 62 56 73 73 25 43 25 107 -2 141 -33 43 -46 34 -51 -36z"/>
<path d="M3370 3745 c-8 -9 -8 -15 -2 -15 12 0 26 19 19 26 -2 2 -10 -2 -17
-11z"/>
<path d="M2877 3544 c-4 -4 -30 -12 -59 -19 -39 -8 -54 -16 -56 -31 -7 -43
-12 -48 -27 -28 -14 18 -14 18 -15 -3 0 -14 6 -23 16 -23 10 0 14 -7 12 -17
-2 -10 -10 -17 -16 -15 -7 1 -12 -2 -12 -8 0 -5 5 -10 10 -10 6 0 10 -7 10
-15 0 -9 -6 -12 -15 -9 -20 8 -19 -6 1 -21 17 -12 14 -23 -132 -532 -13 -45
-20 -53 -54 -67 -53 -21 -107 -70 -119 -109 -6 -18 -15 -73 -20 -124 -9 -82
-16 -104 -62 -193 -81 -157 -78 -224 15 -295 20 -15 40 -24 44 -20 4 4 0 10
-8 13 -8 3 -32 22 -52 42 -35 34 -38 42 -38 93 0 47 8 71 55 163 50 100 55
117 64 206 10 97 24 140 57 169 24 21 84 52 90 46 3 -2 -1 -23 -9 -45 -20 -58
-12 -65 65 -57 60 6 66 9 79 37 20 44 34 40 37 -10 2 -30 -3 -53 -17 -76 -25
-40 -28 -65 -7 -46 21 16 49 106 43 136 -5 28 3 30 42 9 34 -17 41 -32 42 -93
0 -42 1 -44 10 -22 6 14 9 37 6 52 -2 15 0 25 4 22 15 -9 161 -207 172 -233 7
-14 19 -31 27 -38 8 -6 12 -15 8 -19 -4 -4 1 -19 11 -33 50 -71 69 -219 31
-243 -24 -15 -25 -31 -4 -52 24 -25 195 -23 217 2 10 10 17 22 17 27 0 5 8 17
17 27 9 10 18 29 20 41 7 43 37 141 40 130 2 -6 -3 -38 -11 -71 -9 -33 -16
-66 -16 -73 1 -26 17 14 25 58 9 55 17 59 35 20 24 -54 100 -120 161 -139 83
-26 99 -28 150 -17 67 15 134 60 159 108 41 82 20 146 -80 241 -61 58 -71 73
-85 125 -17 66 -20 156 -6 183 6 9 21 43 35 75 27 61 46 90 110 163 32 36 50
48 105 63 88 25 250 45 303 37 65 -10 142 -49 199 -103 87 -81 120 -175 120
-336 0 -55 3 -86 9 -82 6 3 10 -1 10 -10 0 -9 -4 -14 -9 -11 -11 7 -24 -41
-15 -56 4 -6 3 -8 -4 -4 -6 4 -11 -1 -11 -11 0 -10 -7 -56 -16 -102 -18 -94
-15 -123 8 -71 17 39 60 84 70 74 4 -4 12 -2 19 3 18 14 57 23 62 14 3 -4 5
-27 6 -52 1 -38 -5 -76 -36 -220 -3 -15 -1 -30 5 -33 12 -8 140 -14 159 -8 27
9 0 99 -32 104 -30 4 -34 53 -7 70 12 7 21 19 21 26 0 7 4 20 10 30 5 9 14 29
19 43 5 14 25 35 45 47 l35 21 40 -45 c22 -25 45 -43 50 -40 14 9 31 73 31
114 0 48 -16 73 -43 68 -86 -18 -97 -18 -97 4 0 20 109 192 130 205 13 8 13
50 1 73 -6 9 -29 76 -52 147 -23 72 -44 134 -46 138 -3 5 -13 1 -23 -8 -10 -9
-24 -14 -29 -10 -6 3 -39 9 -73 13 -68 8 -87 26 -35 36 18 3 42 13 53 22 19
15 19 16 -1 9 -11 -4 -36 -9 -57 -12 -30 -4 -39 -1 -50 16 -15 25 -33 27 -42
5 -10 -26 -7 -34 18 -45 27 -13 25 -39 -3 -39 -26 0 -115 -47 -141 -75 l-23
-25 -47 44 c-60 56 -125 89 -220 111 -41 10 -82 22 -91 26 -23 12 -192 -26
-254 -57 -27 -14 -66 -38 -87 -54 l-36 -30 -59 36 c-32 19 -68 37 -80 40 -14
4 -23 14 -23 25 0 20 -16 26 -22 9 -4 -14 -197 -19 -195 -6 1 5 -5 11 -14 13
-13 3 -28 -22 -62 -104 -82 -195 -111 -299 -80 -291 4 1 20 -4 35 -12 18 -8
36 -34 58 -83 17 -38 29 -75 26 -82 -2 -7 -1 -16 4 -21 5 -5 3 -33 -5 -64 -7
-30 -23 -100 -36 -155 -37 -168 -37 -167 -67 -163 -41 5 -72 73 -72 158 0 83
41 163 96 186 19 8 34 21 34 29 0 8 5 15 12 15 26 0 -10 17 -83 40 -76 23 -76
23 -86 65 -9 40 -8 44 21 70 25 23 37 54 73 179 24 83 61 194 82 246 38 95 38
95 102 133 90 52 128 49 168 -17 16 -25 27 -33 41 -29 26 7 26 47 0 114 -11
28 -18 60 -15 70 5 14 1 19 -11 19 -23 0 -123 49 -157 77 -32 26 -85 31 -93 9
-8 -20 9 -49 67 -113 28 -30 49 -56 47 -58 -17 -17 -135 -75 -153 -75 -32 0
-47 -23 -40 -62 5 -26 -14 -91 -88 -304 -97 -276 -105 -317 -66 -327 15 -4 19
-14 19 -45 0 -38 -16 -99 -30 -115 -4 -4 -25 17 -48 48 -45 59 -54 102 -27
129 24 24 18 36 -31 56 -25 11 -47 20 -49 20 -2 0 -1 -18 1 -40 9 -73 -45 -40
-61 38 -4 18 -11 30 -16 26 -5 -3 -7 -10 -4 -15 4 -5 -3 -9 -13 -9 -20 0 -36
25 -27 40 2 4 -19 18 -48 30 -58 25 -62 26 -129 36 -27 4 -48 9 -49 13 0 3 -2
25 -5 49 -3 32 9 89 46 216 27 95 56 186 65 202 8 16 15 42 15 57 0 20 12 41
40 68 22 22 37 45 34 51 -4 6 4 20 17 30 16 14 18 18 7 14 -28 -8 -21 13 7 24
24 9 24 10 10 57 -8 26 -15 49 -15 51 0 5 -27 2 -33 -4z m11 -22 c-80 -190
-81 -192 -111 -192 -22 0 -27 4 -24 18 3 9 8 40 12 67 12 90 14 95 49 95 17 0
38 5 46 10 18 12 33 13 28 2z m19 -44 c-22 -14 -28 -8 -16 13 9 17 13 19 20 8
5 -8 3 -16 -4 -21z m663 -118 c9 -16 8 -22 -5 -26 -18 -7 -45 12 -45 32 0 21
38 17 50 -6z m109 -41 c17 -48 7 -45 -33 11 l-37 51 30 -15 c16 -9 34 -29 40
-47z m-919 -64 c0 -8 -4 -15 -9 -15 -13 0 -22 16 -14 24 11 11 23 6 23 -9z m0
-34 c0 -12 -28 -22 -34 -12 -3 5 -3 11 1 15 9 9 33 7 33 -3z m0 -41 c0 -5 -12
-10 -26 -10 -14 0 -23 4 -19 10 3 6 15 10 26 10 10 0 19 -4 19 -10z m623 -10
c-3 -11 -9 -17 -14 -15 -10 7 -1 35 11 35 5 0 6 -9 3 -20z m32 -10 c3 -5 -1
-10 -9 -10 -9 0 -16 5 -16 10 0 6 4 10 9 10 6 0 13 -4 16 -10z m-667 -22 c-5
-13 -48 -22 -48 -10 0 14 12 22 33 22 10 0 17 -5 15 -12z m-8 -37 c0 -5 -11
-11 -25 -13 -17 -4 -25 -1 -25 8 0 8 11 14 25 14 14 0 25 -4 25 -9z m-16 -46
c-4 -8 -15 -15 -25 -15 -10 0 -19 7 -19 15 0 9 9 15 25 15 18 0 23 -4 19 -15z
m1573 -1 c-3 -3 -12 -4 -19 -1 -8 3 -5 6 6 6 11 1 17 -2 13 -5z m-889 -106
c-24 -54 -44 -95 -46 -94 -3 4 52 147 69 179 6 10 12 17 15 15 2 -2 -15 -47
-38 -100z m175 85 c-7 -2 -19 -2 -25 0 -7 3 -2 5 12 5 14 0 19 -2 13 -5z
m-869 -18 c-4 -8 -17 -15 -30 -15 -30 0 -31 8 -1 20 32 13 37 12 31 -5z m786
5 c-34 -11 -60 -11 -35 0 11 5 29 8 40 8 16 0 15 -2 -5 -8z m137 4 c-3 -3 -12
-4 -19 -1 -8 3 -5 6 6 6 11 1 17 -2 13 -5z m-104 -21 c-7 -2 -21 -2 -30 0 -10
3 -4 5 12 5 17 0 24 -2 18 -5z m413 -8 c-11 -8 -25 -15 -30 -15 -6 0 -2 7 8
15 11 8 25 15 30 15 6 0 2 -7 -8 -15z m555 -32 c10 -12 5 -11 -18 6 -18 12
-33 24 -33 27 0 9 37 -15 51 -33z m266 31 c-3 -3 -12 -4 -19 -1 -8 3 -5 6 6 6
11 1 17 -2 13 -5z m-2070 -30 c-3 -3 -16 -4 -29 -2 l-23 5 25 10 c23 10 41 1
27 -13z m923 21 c0 -2 -20 -51 -45 -107 l-45 -103 -76 -2 c-41 0 -74 2 -72 6
2 4 19 48 38 99 28 72 40 94 60 101 26 10 140 15 140 6z m1068 -20 c-26 -14
-50 -30 -54 -36 -4 -6 -3 -10 2 -7 5 2 35 17 67 32 38 18 62 25 69 18 6 -6 -6
-13 -34 -20 -46 -12 -128 -65 -128 -83 0 -5 17 4 39 21 46 37 130 66 136 47
11 -32 45 -155 45 -161 0 -3 -5 -6 -11 -6 -19 0 -118 -53 -135 -72 -10 -10
-12 -18 -7 -18 6 0 16 6 22 14 15 18 131 69 139 62 3 -4 -5 -10 -18 -13 -47
-12 -125 -59 -136 -82 -11 -22 -13 -19 -24 35 -7 33 -24 87 -38 121 -25 61
-25 63 -7 83 22 25 9 26 -19 3 -12 -10 -8 -3 8 14 16 18 48 42 70 53 58 28 71
24 14 -5z m142 15 c0 -5 -4 -10 -10 -10 -5 0 -10 5 -10 10 0 6 5 10 10 10 6 0
10 -4 10 -10z m-1432 -124 c-24 -58 -46 -106 -50 -106 -3 0 11 46 33 101 43
111 49 123 56 116 2 -3 -15 -52 -39 -111z m-715 77 c-7 -2 -21 -2 -30 0 -10 3
-4 5 12 5 17 0 24 -2 18 -5z m-3 -33 c0 -5 -12 -10 -26 -10 -14 0 -23 4 -19
10 3 6 15 10 26 10 10 0 19 -4 19 -10z m-10 -40 c0 -11 -4 -20 -9 -20 -5 0
-16 -3 -25 -6 -9 -3 -16 -1 -16 5 0 6 10 12 23 12 l22 2 -23 4 c-26 5 -20 23
9 23 12 0 19 -7 19 -20z m2199 -60 c0 -8 -7 1 -14 20 -18 46 -17 64 0 25 8
-16 14 -37 14 -45z m-275 44 c3 -8 2 -12 -4 -9 -6 3 -10 10 -10 16 0 14 7 11
14 -7z m-1243 -31 c-12 -20 -14 -14 -5 12 4 9 9 14 11 11 3 -2 0 -13 -6 -23z
m-701 -3 c-20 -13 -40 -13 -40 0 0 6 12 10 28 10 21 0 24 -2 12 -10z m1979
-50 c0 -8 -6 0 -14 19 -8 18 -15 36 -15 40 1 13 29 -45 29 -59z m-1989 20
c-20 -13 -43 -13 -35 0 3 6 16 10 28 10 18 0 19 -2 7 -10z m2230 -45 c0 -5 -5
-3 -10 5 -5 8 -10 20 -10 25 0 6 5 3 10 -5 5 -8 10 -19 10 -25z m-2230 16 c0
-5 -11 -11 -25 -13 -24 -5 -32 2 -18 15 9 10 43 8 43 -2z m864 -9 c2 -4 -30
-8 -72 -8 -48 0 -67 2 -52 7 35 10 118 11 124 1z m1144 -137 c0 -117 -5 -98
-11 35 -2 58 0 94 4 80 4 -14 7 -65 7 -115z m-2023 105 c-3 -5 -15 -10 -26
-10 -10 0 -19 5 -19 10 0 6 12 10 26 10 14 0 23 -4 19 -10z m916 -9 c92 -15
143 -62 83 -77 -42 -11 -176 22 -197 47 -23 28 -5 53 32 45 14 -4 51 -10 82
-15z m1463 13 c22 -9 20 -50 -4 -67 -11 -8 -18 -16 -15 -18 2 -3 -4 -5 -13 -6
-9 0 -41 -6 -71 -12 -76 -16 -137 -14 -155 5 -9 8 -16 19 -16 23 0 23 49 46
128 62 100 19 124 21 146 13z m-1535 -105 c24 -9 31 -16 25 -28 -3 -9 -9 -24
-11 -33 -8 -28 -17 -22 -41 27 -23 49 -22 51 27 34z m1483 -54 c-15 -25 -30
-45 -33 -45 -7 0 -31 61 -27 65 7 5 64 23 75 24 7 1 1 -17 -15 -44z m-1432 15
c-6 -11 -13 -20 -16 -20 -2 0 0 9 6 20 6 11 13 20 16 20 2 0 0 -9 -6 -20z m88
10 c15 0 22 -4 17 -8 -14 -12 -115 -52 -115 -45 0 17 44 63 57 59 8 -3 26 -6
41 -6z m141 -102 c6 -16 7 -28 2 -28 -13 0 -21 25 -26 88 -4 55 -4 55 4 12 5
-25 14 -57 20 -72z m1046 36 c35 -24 69 -44 76 -44 7 0 9 -3 6 -7 -4 -3 -2
-12 4 -19 8 -10 -5 -14 -58 -19 -93 -9 -103 -13 -103 -38 0 -12 -4 -28 -9 -36
-13 -21 -41 -5 -41 24 0 20 -5 25 -23 25 l-24 0 18 58 c10 31 20 69 23 83 5
22 10 25 37 21 18 -3 60 -24 94 -48z m63 27 l4 -23 -31 18 c-38 23 -40 36 -3
32 20 -2 28 -9 30 -27z m-1142 -37 c22 -87 -11 -127 -45 -56 l-16 33 -72 -3
c-39 -2 -69 -1 -67 2 9 9 179 77 184 73 2 -2 9 -24 16 -49z m-12 -125 c58 -46
90 -157 63 -221 -18 -42 -48 -55 -86 -38 -14 7 -33 16 -41 19 -8 4 -23 23 -32
42 -23 44 -25 161 -3 179 8 7 15 19 15 26 0 22 54 17 84 -7z"/>
<path d="M3200 3520 c-7 -17 -26 -45 -42 -62 l-30 -32 23 -39 c18 -32 20 -44
10 -58 -16 -27 -14 -43 9 -64 22 -20 50 -14 50 12 0 10 -12 45 -25 78 l-25 59
33 34 32 33 12 -33 c16 -45 16 -45 -7 -51 -23 -6 -26 -35 -6 -63 12 -15 18
-17 33 -8 24 15 22 59 -6 152 -24 79 -41 90 -61 42z"/>
<path d="M2410 3505 c-6 -8 -9 -23 -5 -36 15 -46 138 -159 174 -159 12 0 9 6
-11 23 -27 23 -60 82 -72 129 -12 51 -59 75 -86 43z"/>
<path d="M5495 3475 c-37 -36 -34 -83 8 -122 49 -46 79 -63 109 -63 15 0 30
-4 33 -10 3 -5 15 -10 25 -10 27 0 174 -241 165 -270 -4 -12 0 -31 9 -45 16
-24 13 -73 -14 -265 -5 -36 -16 -137 -25 -224 -12 -124 -20 -164 -35 -183 -10
-13 -26 -48 -36 -76 -29 -90 -64 -147 -91 -147 -43 0 -63 51 -63 161 0 117 23
196 105 359 30 61 50 110 44 110 -25 0 -79 -31 -79 -45 0 -19 -23 -45 -40 -45
-7 0 -10 8 -7 20 3 11 3 20 1 20 -7 0 -134 -52 -134 -55 0 -1 6 -15 14 -31 17
-31 13 -62 -16 -140 -18 -50 -20 -52 -68 -61 -40 -8 -50 -7 -50 3 0 8 -4 14
-10 14 -36 0 -8 102 43 158 l20 22 -21 0 c-12 0 -22 -5 -22 -11 0 -5 -4 -8 -9
-4 -5 3 -20 -13 -32 -35 -22 -39 -43 -48 -45 -19 -1 8 -2 19 -3 25 0 6 -12 9
-25 7 l-25 -5 3 201 c3 184 5 203 22 216 15 11 17 18 8 32 -6 10 -19 22 -30
27 -27 12 -144 168 -144 192 0 13 -11 24 -30 31 -60 23 -53 83 12 107 111 40
148 39 148 -4 0 -21 -8 -33 -35 -49 -19 -11 -35 -28 -35 -36 0 -23 98 63 106
93 8 27 -11 52 -40 52 -12 0 -73 -12 -136 -26 -63 -14 -127 -23 -142 -20 -21
4 -28 2 -28 -11 0 -9 -25 -44 -56 -79 -31 -35 -54 -69 -52 -74 2 -6 28 7 57
30 56 41 105 52 129 28 7 -7 12 -31 12 -55 0 -46 2 -48 30 -33 16 9 29 -3 90
-82 l72 -93 -6 -120 c-11 -223 -10 -316 5 -326 10 -6 6 -11 -14 -18 -16 -6
-33 -11 -38 -11 -13 0 -11 -12 6 -53 8 -20 15 -65 15 -100 0 -65 -32 -213 -50
-231 -14 -14 -12 -52 3 -64 16 -13 111 -25 136 -17 18 5 21 16 23 88 3 74 5
83 26 92 12 5 22 14 22 20 0 6 12 16 28 23 15 7 40 19 55 28 16 9 31 13 35 9
13 -12 7 -162 -6 -178 -8 -9 -12 -28 -10 -44 l3 -28 105 -5 105 -5 3 -37 c5
-57 -20 -68 -149 -68 -58 0 -127 -3 -153 -6 l-47 -7 3 -86 3 -86 31 -3 c35 -3
50 11 57 53 2 17 5 -18 6 -76 1 -88 -2 -108 -15 -113 -11 -4 -14 -18 -12 -53
l3 -48 100 0 100 0 -3 35 c-2 19 -10 50 -19 69 -9 21 -13 44 -8 65 4 17 9 58
13 91 6 58 6 59 11 20 6 -43 22 -52 67 -41 20 5 24 13 24 41 0 56 24 42 69
-39 39 -69 54 -136 31 -136 -5 0 -10 -25 -10 -55 l0 -55 93 0 c52 0 96 3 100
6 3 3 -4 31 -14 62 -27 75 -21 114 31 202 54 92 56 113 16 145 -17 14 -38 32
-46 40 -15 13 -33 95 -45 200 -3 22 -12 72 -21 112 -16 69 -16 79 5 245 42
329 60 443 75 472 17 33 9 67 -20 80 -11 5 -51 56 -89 114 -39 58 -83 118 -98
134 -20 20 -26 32 -19 41 17 23 -8 71 -64 120 -64 55 -101 61 -139 22z m74 6
c9 -6 10 -11 2 -15 -21 -13 -11 -28 14 -24 19 4 23 2 15 -7 -13 -16 -2 -25 24
-21 12 2 15 1 8 -1 -22 -8 -7 -28 24 -33 24 -5 26 -7 11 -13 -31 -12 -41 -8
-79 26 -20 17 -48 41 -63 51 -26 18 -27 20 -10 33 22 15 35 16 54 4z m-618
-201 c-29 -16 -60 -35 -67 -41 -8 -6 -14 -7 -14 -2 0 14 53 60 75 66 53 13 55
4 6 -23z m969 -271 c0 -5 -4 -9 -10 -9 -5 0 -10 7 -10 16 0 8 5 12 10 9 6 -3
10 -10 10 -16z m-680 -67 c0 -15 -2 -15 -10 -2 -13 20 -13 33 0 25 6 -3 10
-14 10 -23z m530 -812 c0 -33 -3 -40 -19 -40 -19 0 -19 2 -4 40 9 22 18 40 20
40 1 0 3 -18 3 -40z m60 -4 c7 -30 5 -36 -9 -36 -13 0 -16 8 -13 41 5 46 10
45 22 -5z m-80 -95 c5 -11 10 -36 10 -55 0 -58 -69 -87 -85 -36 -7 21 2 45 27
83 23 32 34 34 48 8z m112 -97 c3 -37 11 -61 21 -69 22 -16 21 -43 -3 -82 -24
-39 -33 -41 -65 -8 -32 31 -32 62 2 97 l27 28 -22 16 c-39 27 -22 106 18 84
12 -7 19 -26 22 -66z"/>
<path d="M5441 3195 c-31 -51 -51 -69 -51 -45 0 14 -33 13 -48 -2 -29 -29 -1
-75 38 -63 12 4 37 31 56 61 l35 55 31 -30 30 -29 -42 -42 c-39 -39 -42 -40
-55 -23 -11 14 -18 16 -32 7 -21 -13 -29 -52 -15 -66 19 -19 56 1 125 66 l69
64 -53 51 c-29 28 -53 51 -54 51 0 0 -16 -25 -34 -55z"/>
<path d="M2290 3150 c-26 -26 -20 -55 18 -88 32 -26 123 -62 155 -61 14 1 16
3 6 6 -9 2 -26 26 -39 52 -46 99 -98 133 -140 91z"/>
<path d="M2960 3096 c0 -3 16 -28 35 -55 36 -49 36 -50 15 -61 -14 -7 -20 -19
-18 -33 2 -18 10 -22 37 -22 54 0 61 24 23 82 l-31 48 29 8 c42 11 37 25 -7
24 -21 0 -48 3 -60 8 -13 4 -23 5 -23 1z"/>
<path d="M5542 3027 c-7 -8 -4 -32 10 -76 l19 -63 -20 -15 c-30 -20 -28 -66 3
-82 46 -25 90 13 67 57 -20 37 -23 104 -5 116 13 10 10 16 -24 44 -30 24 -42
28 -50 19z"/>
<path d="M4096 2769 c-40 -11 -64 -36 -78 -81 -9 -29 -9 -41 0 -50 9 -9 12 -5
12 15 0 69 57 115 124 103 33 -6 146 -96 146 -116 0 -4 -22 -10 -49 -14 -39
-5 -55 -13 -75 -37 -31 -36 -31 -38 -10 -67 13 -19 24 -22 61 -21 51 3 66 -11
58 -54 -3 -18 -1 -26 6 -21 6 3 9 21 7 39 -1 22 4 41 16 53 14 16 15 25 7 40
-6 11 -17 22 -25 25 -18 7 -47 -29 -40 -48 7 -17 -55 -29 -72 -14 -41 34 9 84
92 94 29 4 54 10 54 14 0 10 -113 118 -135 128 -34 17 -69 21 -99 12z m211
-215 c3 -8 -1 -23 -10 -32 -15 -14 -17 -14 -23 1 -8 21 1 47 16 47 6 0 13 -7
17 -16z"/>
<path d="M4077 2682 c-20 -22 -22 -53 -4 -71 10 -11 10 -13 0 -7 -16 9 -17
-10 -2 -20 12 -7 31 15 23 28 -9 15 7 47 27 53 10 4 19 13 19 21 0 20 -44 18
-63 -4z m25 -12 c-12 -11 -24 -20 -28 -20 -4 0 1 9 11 20 10 11 23 20 28 20 6
0 1 -9 -11 -20z"/>
<path d="M4118 2616 c-6 -14 -8 -32 -5 -40 9 -23 37 -20 37 4 0 11 5 20 10 20
6 0 10 9 10 20 0 29 -38 26 -52 -4z m26 -11 c-9 -14 -19 -24 -21 -21 -6 6 20
46 30 46 4 0 0 -11 -9 -25z"/>
<path d="M2528 2593 c-28 -32 -38 -61 -38 -107 0 -35 5 -48 22 -60 44 -31 75
17 80 124 3 52 2 55 -23 58 -15 2 -31 -4 -41 -15z m40 -74 c2 -23 -3 -42 -13
-52 -36 -36 -71 23 -40 69 23 36 49 28 53 -17z"/>
<path d="M2664 2474 c-14 -32 -18 -69 -18 -196 -1 -86 3 -150 7 -142 9 16 11
65 8 189 -2 95 -1 103 18 149 18 44 5 44 -15 0z"/>
<path d="M2788 2415 c-6 -6 -1 -316 6 -322 12 -12 18 119 9 201 -6 53 -6 96
-1 103 9 11 -4 28 -14 18z"/>
<path d="M3990 2406 c0 -4 9 -19 21 -35 12 -17 22 -48 24 -82 12 -153 17 -179
41 -208 36 -44 108 -64 209 -60 72 4 87 7 110 29 15 14 34 41 42 60 18 40 35
260 22 276 -5 6 -38 11 -74 12 -75 1 -78 -4 -45 -77 27 -58 26 -122 -1 -147
-12 -10 -23 -17 -24 -14 -2 3 -7 2 -11 -2 -4 -5 -2 -8 4 -8 7 0 12 -9 12 -20
0 -13 -7 -20 -20 -20 -11 0 -20 3 -20 8 0 4 -17 15 -38 25 -26 13 -42 29 -50
51 -14 38 -15 95 -3 128 4 13 11 35 15 51 6 27 6 27 -49 27 -37 0 -55 -4 -56
-12 -1 -7 -2 -22 -3 -33 -2 -31 -28 -24 -39 10 -5 17 -10 31 -11 32 -4 6 -56
14 -56 9z"/>
<path d="M2496 2308 c-32 -4 -62 -11 -65 -14 -7 -8 118 2 126 10 12 11 -2 12
-61 4z"/>
<path d="M2530 2267 l-25 -10 23 -5 c26 -4 36 1 31 16 -3 6 -14 5 -29 -1z"/>
<path d="M2610 2080 c-12 -16 -28 -30 -35 -30 -17 0 -105 -52 -105 -62 0 -18
68 -38 130 -38 75 0 134 20 150 49 19 37 13 44 -36 37 -62 -8 -88 6 -80 45 7
37 3 36 -24 -1z"/>
<path d="M2564 1891 c-32 -19 -54 -64 -54 -108 0 -50 32 -95 97 -136 41 -26
63 -46 63 -58 0 -30 -48 -25 -62 6 -10 23 -17 26 -52 23 l-41 -3 0 -64 0 -64
42 -12 c39 -12 43 -11 48 6 8 23 14 23 51 4 56 -29 104 -14 104 32 0 13 9 28
20 35 14 9 20 24 20 49 0 61 -18 97 -61 121 -39 21 -79 72 -79 98 0 10 3 10
15 0 8 -7 15 -19 15 -26 0 -10 13 -14 40 -14 l40 0 0 61 0 60 -52 -1 c-29 0
-69 2 -88 5 -25 4 -44 0 -66 -14z"/>
<path d="M2945 1896 c-105 -47 -147 -197 -89 -314 33 -67 88 -102 162 -102 69
0 82 7 82 41 0 22 5 29 20 29 10 0 23 -8 29 -17 25 -45 85 71 85 167 0 67 -22
130 -47 130 -7 0 -34 18 -61 40 -51 42 -97 54 -90 23 2 -10 0 -24 -5 -32 -14
-21 -41 -5 -41 24 0 28 -4 29 -45 11z m115 -201 c0 -55 -5 -88 -14 -101 -14
-18 -15 -18 -26 11 -13 32 -9 172 5 195 18 29 35 -22 35 -105z"/>
<path d="M3693 1902 l-93 -3 0 -49 c0 -38 4 -50 15 -50 12 0 15 -18 15 -105 0
-87 -3 -105 -15 -105 -10 0 -15 10 -15 30 0 30 -1 30 -55 30 -54 0 -55 0 -55
-30 0 -25 -4 -30 -24 -30 -22 0 -25 6 -31 53 -8 67 -8 150 0 210 l7 47 -96 0
-96 0 0 -50 c0 -38 4 -50 15 -50 12 0 15 -18 15 -105 0 -87 -3 -105 -15 -105
-12 0 -15 -13 -15 -55 l0 -55 278 2 277 3 3 49 c2 27 -1 52 -6 55 -16 10 -19
195 -4 214 15 18 13 100 -3 102 -5 0 -52 -1 -102 -3z"/>
<path d="M3839 1895 c-5 -34 0 -90 9 -93 16 -5 16 -209 1 -214 -7 -2 -12 -25
-12 -53 l0 -50 129 0 c148 0 186 12 238 78 27 34 31 48 34 116 l4 78 -71 72
-70 71 -131 0 c-71 0 -130 -2 -131 -5z m217 -116 c15 -16 19 -36 19 -89 0 -68
-13 -100 -41 -100 -11 0 -14 22 -14 105 0 58 4 105 8 105 5 0 17 -9 28 -21z"/>
<path d="M4300 1851 c0 -27 5 -51 11 -53 15 -5 -39 -198 -58 -205 -9 -3 -13
-23 -13 -59 l0 -54 68 0 c40 0 73 5 80 12 17 17 15 68 -4 89 -25 28 -11 51 28
47 25 -2 34 -8 36 -25 2 -13 -1 -23 -7 -23 -6 0 -11 -21 -11 -50 l0 -50 88 0
c55 0 92 4 100 12 9 9 12 9 12 0 0 -17 181 -17 198 0 17 17 15 74 -3 92 -18
18 -20 69 -3 64 7 -3 26 -36 43 -74 16 -38 34 -75 38 -81 13 -20 356 -18 363
1 3 8 -6 42 -21 75 -21 47 -26 68 -21 98 4 21 10 58 13 83 3 24 12 49 20 55
14 10 14 20 3 93 0 1 -47 2 -105 2 l-105 0 0 -50 c0 -38 4 -50 15 -50 23 0 22
-205 -1 -214 -30 -11 -94 47 -94 85 0 26 27 59 48 59 7 0 12 17 12 44 0 48
-29 96 -60 96 -9 0 -23 7 -30 15 -8 9 -30 15 -56 15 -40 0 -44 -2 -44 -25 0
-15 -6 -25 -14 -25 -8 0 -23 11 -34 25 -18 22 -27 25 -91 25 l-71 0 0 -50 c0
-38 4 -50 15 -50 12 0 15 -18 15 -104 0 -92 -2 -105 -17 -108 -41 -9 -113 108
-113 183 0 17 8 44 17 60 27 45 9 64 -58 64 -48 0 -54 -2 -57 -22 -2 -15 -10
-23 -22 -23 -12 0 -20 8 -22 23 -2 18 -10 23 -45 25 l-43 3 0 -50z m560 -60
c13 -25 4 -48 -20 -54 -25 -6 -30 0 -30 40 0 26 4 33 20 33 10 0 24 -9 30 -19z
m-436 -102 c-3 -5 -9 -9 -15 -9 -11 0 -12 43 -2 54 9 9 25 -33 17 -45z"/>
<path d="M2860 1405 l0 -25 1365 0 1365 0 0 25 0 25 -1365 0 -1365 0 0 -25z"/>
<path d="M4315 1300 c-4 -6 -64 -10 -148 -10 l-142 0 0 -160 0 -160 49 0 c41
0 47 2 37 14 -7 8 -11 37 -9 68 l3 53 63 3 c38 2 69 -2 78 -9 12 -10 14 -4 14
32 l0 44 -80 -3 -80 -4 0 32 0 31 115 -3 115 -3 0 43 c0 42 -4 50 -15 32z"/>
<path d="M4670 1300 c0 -6 -56 -10 -147 -10 l-148 0 0 -160 0 -160 146 0 c99
0 149 -4 157 -12 9 -9 12 0 12 42 0 42 -3 51 -12 42 -8 -8 -49 -12 -121 -12
l-108 0 3 38 3 37 63 3 c38 2 69 -2 78 -9 12 -10 14 -4 14 32 l0 44 -80 -3
-80 -4 0 32 0 31 115 -3 115 -3 0 43 c0 23 -2 42 -5 42 -3 0 -5 -4 -5 -10z"/>
<path d="M5070 1270 l0 -45 62 3 63 4 -5 -131 -5 -131 45 0 45 0 -5 131 -5
131 63 -4 62 -3 0 44 c0 35 -3 42 -12 33 -8 -8 -56 -12 -148 -12 -92 0 -140 4
-148 12 -9 9 -12 2 -12 -32z"/>
<path d="M4796 1285 c-38 -20 -55 -44 -56 -77 0 -60 31 -83 127 -94 105 -12
126 -31 82 -75 -19 -19 -29 -21 -77 -16 -34 4 -67 14 -85 27 -16 12 -30 20
-31 18 -7 -11 -26 -61 -24 -62 16 -10 90 -36 115 -41 120 -23 222 59 179 144
-21 40 -41 50 -133 61 -82 11 -102 24 -76 52 22 25 98 24 148 -2 22 -11 40
-20 41 -20 4 0 26 61 23 63 -2 2 -26 10 -54 20 -62 21 -140 22 -179 2z"/>
<path d="M3115 1130 l0 -160 50 0 c38 0 46 3 37 12 -7 7 -12 32 -12 58 1 36 5
49 25 62 23 18 24 18 75 -44 28 -33 49 -67 46 -74 -4 -11 9 -14 62 -14 54 1
64 3 52 13 -26 20 -150 167 -150 177 0 5 28 30 62 57 34 26 69 53 78 60 12 10
3 12 -51 13 -52 0 -66 -3 -65 -14 0 -8 -28 -37 -64 -65 l-65 -51 -3 57 c-2 38
1 59 10 64 8 5 -7 9 -37 9 l-50 0 0 -160z"/>
<path d="M3501 1163 c3 -71 9 -136 13 -146 29 -64 219 -75 278 -17 28 28 28
30 28 147 0 79 4 123 12 131 9 9 0 12 -42 12 -42 0 -51 -3 -42 -12 8 -8 12
-47 12 -110 0 -92 -2 -101 -25 -123 -34 -35 -106 -35 -140 0 -23 22 -25 31
-25 123 0 63 4 102 12 110 9 9 1 12 -37 12 l-50 0 6 -127z"/>
<path d="M3230 870 l0 -30 990 0 990 0 0 30 0 30 -990 0 -990 0 0 -30z"/>
</g>
</svg>
